<?xml version="1.0" encoding="utf-8"?>
<!-- Generator: Adobe Illustrator 16.0.0, SVG Export Plug-In . SVG Version: 6.00 Build 0)  -->
<!DOCTYPE svg PUBLIC "-//W3C//DTD SVG 1.1//EN" "http://www.w3.org/Graphics/SVG/1.1/DTD/svg11.dtd">
<svg version="1.1" id="Layer_1" xmlns="http://www.w3.org/2000/svg" xmlns:xlink="http://www.w3.org/1999/xlink" x="0px" y="0px"
	 width="612px" height="792px" viewBox="0 0 612 792" enable-background="new 0 0 612 792" xml:space="preserve">
<title>Bugs</title>
<g id="Layer_2">
	<g id="Layer_1-2">
		<path fill="#EF78FF" d="M251.053,469.507L121.868,598.691c20.105,16.225,45.08,25.221,70.912,25.545h58.273
			c10.278-0.451,20.464-2.148,30.333-5.056v68.384c2.294,6.98,9.813,10.779,16.793,8.485c4.016-1.32,7.165-4.47,8.485-8.485v-78.495
			c10.303-4.487,19.248-11.598,25.943-20.622l10.111-10.111c4.887-4.671,5.061-12.419,0.39-17.306
			c-0.127-0.133-0.257-0.263-0.39-0.389L251.053,469.507z"/>
		<path fill="#EF78FF" d="M154.863,373.183c-2.528-2.528-7.583-5.056-10.111-2.528h-25.012c-5.056,0-7.583,0-10.111,5.056
			l-15.566,22.352H15.566c-6.98-2.295-14.499,1.504-16.793,8.484c-2.294,6.98,1.505,14.499,8.485,16.794
			c2.699,0.887,5.61,0.887,8.309,0H83.95c-2.906,9.869-4.604,20.055-5.055,30.333v58.806c0.248,25.801,9.149,50.772,25.278,70.912
			l129.186-129.186L154.863,373.183z"/>
		<path fill="#EF78FF" d="M324.493,284.576c2.527,2.528,5.056,2.528,10.111,2.528c2.779,0.34,5.564-0.588,7.583-2.528
			c5.211-3.105,7.361-9.557,5.056-15.167c-6.32-12.6-10.801-26.041-13.304-39.913c-0.73-6.351-6.471-10.907-12.821-10.177
			c-0.161,0.019-0.322,0.041-0.483,0.066h-23.948c-3.955,0.098-7.66,1.951-10.111,5.056c-2.011,2.966-2.906,6.548-2.528,10.111
			c0.729,7.766,4.336,14.979,10.111,20.223L324.493,284.576z"/>
		<path fill="#EF78FF" d="M476.429,472.034h45.634c6.98-2.294,10.779-9.813,8.485-16.793c-1.32-4.016-4.47-7.165-8.485-8.485H451.15
			L276.331,271.937c-12.775-12.794-20.034-30.082-20.222-48.162v-43.106c0.781-6.566-3.909-12.523-10.476-13.304
			c-0.939-0.112-1.889-0.112-2.829,0h-2.528c-6.756-12.741-15.02-24.623-24.613-35.39c-22.717-25.102-54.887-39.571-88.74-39.913
			c-28.517,0.35-56.117,10.127-78.496,27.806c-2.664,2.785-4.426,6.309-5.056,10.111c0.098,3.955,1.951,7.66,5.056,10.111
			l78.496,45.102c-2.6,23.762-16.869,44.667-38.05,55.746l-68.384-39.913c-3.966-2.885-9.339-2.885-13.304,0
			c-5.056,2.528-7.583,5.056-7.583,10.111c-2.438,34.758,10.556,68.825,35.522,93.13c23.671,25.165,56.587,39.581,91.135,39.913
			c9.552,0.787,19.143-0.957,27.806-5.056l203.424,203.822l136.769,136.769c12.794,12.775,30.082,20.034,48.161,20.223
			c36.222-0.36,65.496-29.635,65.856-65.856c-0.188-18.079-7.447-35.367-20.223-48.161L476.429,472.034z"/>
		<path fill="#EF78FF" d="M463.79,421.345c2.527,2.528,5.056,2.528,10.11,2.528h5.057c5.082-2.39,8.116-7.714,7.583-13.305v-32.33
			c0-5.056-5.056-13.304-10.111-13.304c-15.823,0.563-31.529-2.917-45.634-10.111c-5.61-2.306-12.063-0.155-15.167,5.056
			c-2.528,5.055-2.528,13.304,2.527,15.167L463.79,421.345z"/>
		<path fill="#EF78FF" d="M608.142,223.775c-20.223-20.223-68.384-5.056-93.13,7.583l-38.583-37.917
			c10.111-27.806,25.278-75.968,7.583-93.13c-4.671-4.886-12.419-5.061-17.305-0.389c-0.133,0.126-0.263,0.256-0.39,0.389
			c-4.887,4.671-5.061,12.419-0.39,17.305c0.127,0.133,0.257,0.263,0.39,0.39c5.056,5.056,0,35.522-13.305,68.384l-80.491,12.107
			c-6.351,0.73-10.907,6.47-10.177,12.821c0.019,0.162,0.04,0.323,0.065,0.483c-4.922,70.247,58.406,133.043,134.374,133.043
			c5.056,0,13.305-5.056,13.305-10.111l13.304-81.023c32.862-13.304,63.329-17.695,68.385-13.304
			c2.847,6.293,10.256,9.087,16.549,6.24s9.087-10.256,6.24-16.549C613.285,227.265,610.995,225.011,608.142,223.775z"/>
	</g>
</g>
</svg>
