<?xml version="1.0" encoding="utf-8"?>
<!-- Generator: Adobe Illustrator 16.0.0, SVG Export Plug-In . SVG Version: 6.00 Build 0)  -->
<!DOCTYPE svg PUBLIC "-//W3C//DTD SVG 1.1//EN" "http://www.w3.org/Graphics/SVG/1.1/DTD/svg11.dtd">
<svg version="1.1" id="Layer_1" xmlns="http://www.w3.org/2000/svg" xmlns:xlink="http://www.w3.org/1999/xlink" x="0px" y="0px"
	 width="612px" height="792px" viewBox="0 0 612 792" enable-background="new 0 0 612 792" xml:space="preserve">
<title>Plugin Documentation</title>
<g id="Layer_2">
	<g id="Layer_1-2">
		<rect x="210.741" y="317.903" fill="#EF78FF" width="190.518" height="21.154"/>
		<rect x="210.741" y="411.832" fill="#EF78FF" width="190.518" height="21.154"/>
		<rect x="210.741" y="364.868" fill="#EF78FF" width="190.518" height="21.154"/>
		<path fill="#EF78FF" d="M306,90C137.001,90,0,227.001,0,396s137.001,306,306,306s306-137.001,306-306S474.999,90,306,90z
			 M378.774,221.713l64.261,58.539h-64.261V221.713z M348.308,527.713v42.574H206.084c-20.5,0-37.119-16.619-37.119-37.119l0,0
			V258.832c0-20.5,16.619-37.119,37.119-37.119l0,0h156.858v74.372h79.826v162.712H210.741v21.153h185.462v25.811H210.741v21.154
			h137.7L348.308,527.713z M498.514,561.24h-47.763v47.629h-33.394V561.24h-47.763v-33.527h47.763V479.95h33.527v47.763h47.762
			L498.514,561.24z"/>
	</g>
</g>
</svg>
