<?xml version="1.0" encoding="utf-8"?>
<!-- Generator: Adobe Illustrator 16.0.0, SVG Export Plug-In . SVG Version: 6.00 Build 0)  -->
<!DOCTYPE svg PUBLIC "-//W3C//DTD SVG 1.1//EN" "http://www.w3.org/Graphics/SVG/1.1/DTD/svg11.dtd">
<svg version="1.1" id="Layer_1" xmlns="http://www.w3.org/2000/svg" xmlns:xlink="http://www.w3.org/1999/xlink" x="0px" y="0px"
	 width="612px" height="792px" viewBox="0 0 612 792" enable-background="new 0 0 612 792" xml:space="preserve">
<title>Customization</title>
<g id="Layer_2">
	<g id="Layer_1-2">
		<path fill="#EF78FF" d="M306,298.146c99.428,0,198.855,0,298.283,0c5.854,0,7.451,1.729,7.451,7.451c0,121.957,0,243.913,0,365.87
			c1.979,14.562-8.22,27.971-22.781,29.95c-2.419,0.329-4.87,0.324-7.287-0.016H30.733c-14.485,2.478-28.236-7.257-30.714-21.742
			c-0.501-2.931-0.508-5.925-0.019-8.857C0,549.288,0,427.73,0,306.129c0-7.982,0-7.982,7.85-7.982H306z M253.847,585.786
			c6.386,2.661,12.107,5.455,18.094,7.185c3.789,0.595,6.565,3.882,6.519,7.717c1.45,11.794,10.919,20.985,22.75,22.085
			c11.809,2.034,23.262-5.124,26.609-16.63c1.729-11.442,8.515-14.502,17.162-17.429c1.365-0.442,2.664-1.068,3.858-1.863
			c3.038-2.491,7.502-2.14,10.111,0.799c8.865,7.24,21.603,7.24,30.467,0c9.909-5.938,13.706-18.421,8.781-28.871
			c-5.943-7.874-5.943-18.734,0-26.608c0.051-0.353,0.051-0.711,0-1.064c0.932-6.253,4.124-8.78,10.776-9.579
			c11.725-1.607,20.719-11.212,21.553-23.017c1.163-11.207-6.006-21.592-16.896-24.479c-11.042-1.464-14.103-7.982-16.763-16.231
			c-0.45-1.552-1.123-3.031-1.996-4.391c-2.561-3.258-2.091-7.957,1.064-10.644c7.055-8.731,7.055-21.203,0-29.935
			c-6.147-10.062-18.933-13.805-29.536-8.647c-7.388,5.478-17.49,5.478-24.879,0c-1.616-0.874-3.372-1.459-5.188-1.729
			c-4.124-0.666-5.322-2.928-5.721-7.052c-1.173-11.97-10.537-21.5-22.484-22.883c-11.887-2.009-23.372,5.283-26.609,16.896
			c-1.597,11.042-8.116,13.304-16.364,16.763c-1.364,0.445-2.662,1.071-3.858,1.862c-3.469,2.967-8.673,2.611-11.708-0.798
			c-8.749-7.005-21.186-7.005-29.935,0c-9.73,6.154-13.329,18.607-8.382,29.004c5.283,7.305,5.283,17.175,0,24.479
			c-0.652,1.252-1.102,2.599-1.331,3.991c-0.665,4.258-2.793,5.721-7.317,6.12c-11.714,1.193-21.075,10.278-22.617,21.952
			c-2.11,11.782,5.005,23.26,16.498,26.608c8.902,1.366,15.926,8.283,17.429,17.163c0.435,1.368,1.062,2.667,1.862,3.858
			c2.423,3.06,2.075,7.47-0.798,10.111c-8.466,10.279-7.103,25.453,3.06,34.059C227.726,594.545,243.535,595.073,253.847,585.786z"
			/>
		<path fill="#EF78FF" d="M305.202,247.59H8.116C0,247.59,0,247.59,0,239.208c0-39.381,0-78.762,0-118.143
			C-2.339,106.558,7.526,92.9,22.034,90.561c2.882-0.465,5.821-0.452,8.699,0.038h549.204c14.498-2.402,28.198,7.404,30.6,21.902
			c0.478,2.88,0.478,5.818,0,8.698c0,39.913,0,79.826,0,119.739c0,5.587-1.596,7.184-7.184,7.184L305.202,247.59z M236.685,142.619
			c-14.292-0.257-26.085,11.12-26.343,25.412c-0.257,14.291,11.12,26.085,25.411,26.342c14.29,0.011,26.037-11.266,26.609-25.544
			C262.158,154.644,250.862,143.114,236.685,142.619z M85.946,167.897c-0.287,14.252,11.034,26.038,25.285,26.325
			c14.252,0.287,26.038-11.034,26.325-25.285c0.285-14.142-10.865-25.877-25.002-26.318c-14.248-0.444-26.158,10.747-26.602,24.995
			C85.95,167.708,85.948,167.802,85.946,167.897z"/>
		<path fill="#EF78FF" d="M305.335,449.816c27.187,0.074,49.165,22.174,49.091,49.36s-22.174,49.165-49.36,49.091
			c-26.979-0.073-48.871-21.849-49.09-48.826c-0.22-27.186,21.639-49.403,48.825-49.624
			C304.979,449.816,305.157,449.815,305.335,449.816z"/>
	</g>
</g>
</svg>
