<?xml version="1.0" encoding="utf-8"?>
<!-- Generator: Adobe Illustrator 16.0.0, SVG Export Plug-In . SVG Version: 6.00 Build 0)  -->
<!DOCTYPE svg PUBLIC "-//W3C//DTD SVG 1.1//EN" "http://www.w3.org/Graphics/SVG/1.1/DTD/svg11.dtd">
<svg version="1.1" id="Layer_1" xmlns="http://www.w3.org/2000/svg" xmlns:xlink="http://www.w3.org/1999/xlink" x="0px" y="0px"
	 width="612px" height="792px" viewBox="0 0 612 792" enable-background="new 0 0 612 792" xml:space="preserve">
<title>Support Team</title>
<g id="Layer_2">
	<g id="Layer_1-2">
		<path fill="#EF78FF" d="M124.647,545.732l20.274-20.274h148.802l-94.489-170.75l-69.937,14.136
			c-18.107,3.88-32.491,17.617-37.201,35.526L8.023,675.376c-6.883,26.232,8.803,53.077,35.035,59.96
			c4.047,1.062,8.212,1.602,12.396,1.607h69.193V545.732z"/>
		<path fill="#EF78FF" d="M603.977,675.376l-82.957-270.82c-4.827-18.291-19.732-32.182-38.316-35.712l-69.565-13.207
			l-94.117,169.821h159.218l20.274,20.274v191.211h58.033c27.12-0.037,49.075-22.052,49.038-49.171
			C605.578,683.589,605.038,679.423,603.977,675.376L603.977,675.376z"/>
		<polygon fill="#EF78FF" points="165.196,736.943 159.616,736.943 159.616,736.943 452.384,736.943 452.384,736.943 
			457.964,736.943 457.964,566.007 165.196,566.007 		"/>
		<rect x="84.285" y="755.357" fill="#EF78FF" width="443.245" height="36.643"/>
		<path fill="#EF78FF" d="M148.083,235.293c0,1.674,1.86,4.092,2.79,6.696c2.686,8.321,6.983,16.032,12.648,22.692
			c22.506,73.285,80.539,124.25,142.106,124.064c61.567-0.186,118.67-51.523,140.433-124.994c5.504-6.462,9.732-13.91,12.462-21.948
			c1.116-2.604,2.046-5.022,2.79-6.696c8.32-14.612,5.804-32.989-6.139-44.827v-2.418C454.988,96.722,443.084,0,303.954,0
			c-139.13,0-150.291,93.001-149.918,188.793c0,0,0,1.116,0,1.674C142.155,202.35,139.716,220.722,148.083,235.293z
			 M166.684,205.905L166.684,205.905c2.884-0.414,5.455-2.038,7.068-4.464l24.18,3.72c2.318,0.38,4.604-0.839,5.58-2.976
			l14.694-34.783c43.882,10.791,88.76,17.024,133.922,18.601c13.233,0.257,26.439-1.308,39.246-4.65l9.858,23.25
			c0.76,1.904,2.6,3.156,4.65,3.162h1.302l28.086-7.998c1.101,2.555,3.177,4.564,5.767,5.58l0,0
			c4.278,2.046,5.58,11.16,1.116,20.274c-1.116,2.232-2.232,5.022-3.349,7.998c-1.916,5.34-4.411,10.455-7.439,15.252
			c-2.361,1.326-4.101,3.533-4.837,6.138c-18.6,66.589-68.448,113.09-121.646,113.276c-53.197,0.186-104.162-46.129-123.32-111.602
			c-0.736-2.605-2.475-4.813-4.836-6.138c-3.078-4.798-5.635-9.911-7.626-15.252c-1.116-2.79-2.418-5.58-3.348-7.812
			c-3.72-10.23-2.418-19.344,1.86-21.39L166.684,205.905z"/>
	</g>
</g>
</svg>
