<svg width="30" height="30" viewBox="0 0 30 30" fill="none" xmlns="http://www.w3.org/2000/svg">
<path d="M12.7227 17.2773C13.3529 17.9076 14.112 18.2227 15 18.2227C15.888 18.2227 16.6471 17.9076 17.2773 17.2773C17.9076 16.6471 18.2227 15.888 18.2227 15C18.2227 14.112 17.9076 13.3529 17.2773 12.7227C16.6471 12.0924 15.888 11.7773 15 11.7773C14.112 11.7773 13.3529 12.0924 12.7227 12.7227C12.0924 13.3529 11.7773 14.112 11.7773 15C11.7773 15.888 12.0924 16.6471 12.7227 17.2773ZM21.832 15.9023L23.7656 17.4062C23.9661 17.5495 23.9948 17.75 23.8516 18.0078L22.0039 21.1875C21.8893 21.388 21.7031 21.4453 21.4453 21.3594L19.168 20.457C18.5664 20.8867 18.0508 21.1875 17.6211 21.3594L17.2773 23.7656C17.2201 24.0234 17.0768 24.1523 16.8477 24.1523H13.1523C12.9232 24.1523 12.7799 24.0234 12.7227 23.7656L12.3789 21.3594C11.8346 21.1302 11.319 20.8294 10.832 20.457L8.55469 21.3594C8.29688 21.4453 8.11068 21.388 7.99609 21.1875L6.14844 18.0078C6.00521 17.75 6.03385 17.5495 6.23438 17.4062L8.16797 15.9023C8.13932 15.7018 8.125 15.401 8.125 15C8.125 14.599 8.13932 14.2982 8.16797 14.0977L6.23438 12.5938C6.03385 12.4505 6.00521 12.25 6.14844 11.9922L7.99609 8.8125C8.11068 8.61198 8.29688 8.55469 8.55469 8.64062L10.832 9.54297C11.4336 9.11328 11.9492 8.8125 12.3789 8.64062L12.7227 6.23438C12.7799 5.97656 12.9232 5.84766 13.1523 5.84766H16.8477C17.0768 5.84766 17.2201 5.97656 17.2773 6.23438L17.6211 8.64062C18.1654 8.86979 18.681 9.17057 19.168 9.54297L21.4453 8.64062C21.7031 8.55469 21.8893 8.61198 22.0039 8.8125L23.8516 11.9922C23.9948 12.25 23.9661 12.4505 23.7656 12.5938L21.832 14.0977C21.8607 14.2982 21.875 14.599 21.875 15C21.875 15.401 21.8607 15.7018 21.832 15.9023Z" fill="#BBBBBB"/>
</svg>
