<svg width="30" height="30" viewBox="0 0 30 30" fill="none" xmlns="http://www.w3.org/2000/svg">
<path d="M15.4727 11.3477V15.2148L18.6523 17.1484L18.0078 18.2656L14.0977 15.9023V11.3477H15.4727ZM23.25 13.2812H17.0195L19.5547 10.7031C18.2943 9.44271 16.776 8.8125 15 8.8125C13.2526 8.78385 11.7487 9.38542 10.4883 10.6172C9.97266 11.1328 9.52865 11.8346 9.15625 12.7227C8.78385 13.582 8.59766 14.3698 8.59766 15.0859C8.59766 15.8021 8.78385 16.6042 9.15625 17.4922C9.52865 18.3516 9.97266 19.0391 10.4883 19.5547C11.0039 20.0703 11.7057 20.5143 12.5938 20.8867C13.4818 21.2591 14.2839 21.4453 15 21.4453C15.7161 21.4453 16.5182 21.2591 17.4062 20.8867C18.3229 20.5143 19.0391 20.0703 19.5547 19.5547C20.7865 18.3229 21.4023 16.8333 21.4023 15.0859H23.25C23.25 17.349 22.4479 19.2682 20.8438 20.8438C19.2396 22.4479 17.2917 23.25 15 23.25C12.7083 23.25 10.7604 22.4479 9.15625 20.8438C7.55208 19.2682 6.75 17.3633 6.75 15.1289C6.75 12.8659 7.55208 10.9323 9.15625 9.32812C9.8151 8.66927 10.7031 8.11068 11.8203 7.65234C12.9661 7.16536 14.0117 6.92188 14.957 6.92188C15.9023 6.92188 16.9336 7.16536 18.0508 7.65234C19.1966 8.11068 20.099 8.66927 20.7578 9.32812L23.25 6.75V13.2812Z" fill="#BBBBBB"/>
</svg>
