<svg width="30" height="30" viewBox="0 0 30 30" fill="none" xmlns="http://www.w3.org/2000/svg">
<path d="M9.80078 20.1992C11.2617 21.6315 12.9948 22.3477 15 22.3477C17.0052 22.3477 18.724 21.6315 20.1562 20.1992C21.6172 18.7383 22.3477 17.0052 22.3477 15C22.3477 12.9948 21.6172 11.276 20.1562 9.84375C18.724 8.38281 17.0052 7.65234 15 7.65234C12.9948 7.65234 11.2617 8.38281 9.80078 9.84375C8.36849 11.276 7.65234 12.9948 7.65234 15C7.65234 17.0052 8.36849 18.7383 9.80078 20.1992ZM8.51172 8.55469C10.3164 6.75 12.4792 5.84766 15 5.84766C17.5208 5.84766 19.6693 6.75 21.4453 8.55469C23.25 10.3307 24.1523 12.4792 24.1523 15C24.1523 17.5208 23.25 19.6836 21.4453 21.4883C19.6693 23.2643 17.5208 24.1523 15 24.1523C12.4792 24.1523 10.3164 23.2643 8.51172 21.4883C6.73568 19.6836 5.84766 17.5208 5.84766 15C5.84766 12.4792 6.73568 10.3307 8.51172 8.55469ZM17.0625 9.97266C17.8073 10.2878 18.4089 10.6745 18.8672 11.1328C19.3255 11.5911 19.7122 12.1927 20.0273 12.9375C20.3424 13.6823 20.5 14.3698 20.5 15C20.5 15.6302 20.3424 16.3177 20.0273 17.0625C19.7409 17.8073 19.3685 18.4089 18.9102 18.8672C17.8503 19.9557 16.5612 20.5 15.043 20.5C13.5247 20.5 12.2214 19.9557 11.1328 18.8672L15 15V9.5C15.6302 9.5 16.3177 9.65755 17.0625 9.97266Z" fill="#BBBBBB"/>
</svg>
