<svg width="30" height="30" viewBox="0 0 30 30" fill="none" xmlns="http://www.w3.org/2000/svg">
<path d="M14.0977 18.6523V15.9023H4.90234V14.0977H14.0977V11.3477L17.75 15L14.0977 18.6523ZM23.25 6.75C23.7656 6.75 24.1953 6.9362 24.5391 7.30859C24.9115 7.65234 25.0977 8.08203 25.0977 8.59766V21.4453C25.0977 21.9323 24.9115 22.362 24.5391 22.7344C24.1667 23.0781 23.737 23.25 23.25 23.25H6.75C6.26302 23.25 5.83333 23.0781 5.46094 22.7344C5.08854 22.362 4.90234 21.9323 4.90234 21.4453V17.75H6.75V21.4453H23.25V8.55469H6.75V12.25H4.90234V8.59766C4.90234 8.11068 5.08854 7.68099 5.46094 7.30859C5.83333 6.9362 6.26302 6.75 6.75 6.75H23.25Z" fill="#EC1B34"/>
</svg>
