<svg width="30" height="30" viewBox="0 0 30 30" fill="none" xmlns="http://www.w3.org/2000/svg">
<path d="M19.5977 15C19.5977 15.2578 19.4974 15.4727 19.2969 15.6445C19.125 15.8164 18.9102 15.9023 18.6523 15.9023H9.5L5.84766 19.5977V6.75C5.84766 6.49219 5.93359 6.27734 6.10547 6.10547C6.27734 5.93359 6.49219 5.84766 6.75 5.84766H18.6523C18.9102 5.84766 19.125 5.93359 19.2969 6.10547C19.4974 6.27734 19.5977 6.49219 19.5977 6.75V15ZM23.25 9.5C23.5078 9.5 23.7227 9.58594 23.8945 9.75781C24.0664 9.92969 24.1523 10.1445 24.1523 10.4023V24.1523L20.5 20.5H10.4023C10.1445 20.5 9.92969 20.4141 9.75781 20.2422C9.58594 20.0703 9.5 19.8555 9.5 19.5977V17.75H21.4023V9.5H23.25Z" fill="#BBBBBB"/>
</svg>
