<svg width="30" height="30" viewBox="0 0 30 30" fill="none" xmlns="http://www.w3.org/2000/svg">
<path d="M16.2891 20.5859C18.2083 20.2135 19.168 19.2539 19.168 17.707C19.168 15.9596 17.8789 14.7565 15.3008 14.0977C13.6966 13.6966 12.8945 13.1094 12.8945 12.3359C12.8945 11.9062 13.0807 11.5482 13.4531 11.2617C13.8542 10.9753 14.3984 10.832 15.0859 10.832C16.375 10.832 17.0482 11.4049 17.1055 12.5508H18.9102C18.8529 10.918 17.9792 9.88672 16.2891 9.45703V7.65234H13.8398V9.45703C13.0091 9.62891 12.3216 9.97266 11.7773 10.4883C11.2617 10.9753 11.0039 11.6055 11.0039 12.3789C11.0039 13.9831 12.2786 15.1003 14.8281 15.7305C16.4609 16.1029 17.2773 16.7617 17.2773 17.707C17.2773 18.0794 17.1055 18.4232 16.7617 18.7383C16.4466 19.0247 15.888 19.168 15.0859 19.168C13.5677 19.168 12.7513 18.5951 12.6367 17.4492H10.832C10.918 19.082 11.9206 20.1133 13.8398 20.543V22.3477H16.2891V20.5859ZM8.51172 8.55469C10.3164 6.75 12.4792 5.84766 15 5.84766C17.5208 5.84766 19.6693 6.75 21.4453 8.55469C23.25 10.3307 24.1523 12.4792 24.1523 15C24.1523 17.5208 23.25 19.6836 21.4453 21.4883C19.6693 23.2643 17.5208 24.1523 15 24.1523C12.4792 24.1523 10.3164 23.2643 8.51172 21.4883C6.73568 19.6836 5.84766 17.5208 5.84766 15C5.84766 12.4792 6.73568 10.3307 8.51172 8.55469Z" fill="#BBBBBB"/>
</svg>
