<svg width="16" height="16" viewBox="0 0 16 16" fill="none" xmlns="http://www.w3.org/2000/svg">
<path d="M5.37891 10.5742C5.37891 10.6914 5.4375 10.75 5.55469 10.75H14.2383V12.2617H5.23828C4.83984 12.2617 4.48828 12.1094 4.18359 11.8047C3.90234 11.5 3.76172 11.1484 3.76172 10.75C3.76172 10.5156 3.82031 10.2812 3.9375 10.0469L4.95703 8.18359L2.25 2.48828H0.738281V1.01172H3.19922C3.66797 1.99609 4.13672 2.99219 4.60547 4C4.72266 4.21094 4.99219 4.77344 5.41406 5.6875C5.83594 6.57812 6.16406 7.26953 6.39844 7.76172H11.6719C13.4297 4.57422 14.3906 2.81641 14.5547 2.48828L15.8555 3.22656L12.9727 8.46484C12.6914 8.98047 12.2578 9.23828 11.6719 9.23828H6.08203L5.41406 10.4688L5.37891 10.5742ZM11.707 13.457C12.0117 13.1523 12.3633 13 12.7617 13C13.1602 13 13.5 13.1523 13.7812 13.457C14.0859 13.7617 14.2383 14.1133 14.2383 14.5117C14.2383 14.9102 14.0859 15.2617 13.7812 15.5664C13.5 15.8477 13.1602 15.9883 12.7617 15.9883C12.3633 15.9883 12.0117 15.8477 11.707 15.5664C11.4023 15.2617 11.25 14.9102 11.25 14.5117C11.25 14.1133 11.4023 13.7617 11.707 13.457ZM4.18359 13.457C4.48828 13.1523 4.83984 13 5.23828 13C5.63672 13 5.98828 13.1523 6.29297 13.457C6.59766 13.7617 6.75 14.1133 6.75 14.5117C6.75 14.9102 6.59766 15.2617 6.29297 15.5664C5.98828 15.8477 5.63672 15.9883 5.23828 15.9883C4.83984 15.9883 4.48828 15.8477 4.18359 15.5664C3.90234 15.2617 3.76172 14.9102 3.76172 14.5117C3.76172 14.1133 3.90234 13.7617 4.18359 13.457ZM8.26172 6.25V4H6.01172V2.48828H8.26172V0.238281H9.73828V2.48828H11.9883V4H9.73828V6.25H8.26172Z" fill="white"/>
</svg>
